<svg xmlns="http://www.w3.org/2000/svg" xmlns:xlink="http://www.w3.org/1999/xlink" version="1.1" id="Layer_1" x="0px" y="0px" width="90px" height="90px" viewBox="0 0 90 90" enable-background="new 0 0 90 90" xml:space="preserve">
<path fill="#000000" d="M81.086,61.036v4.989c0,4.303-3.486,7.79-7.791,7.79H16.333c-4.302,0-7.791-3.487-7.791-7.79V61.22  c-4.982,2.505-7.908,5.545-7.908,8.823c0,8.553,19.863,15.489,44.365,15.489c24.5,0,44.365-6.937,44.365-15.489  C89.365,66.684,86.293,63.574,81.086,61.036z"/>
<path fill="#000000" d="M30.646,50.061c0.309-0.457,0.828-0.732,1.382-0.732c0.553,0,1.07,0.275,1.382,0.732  c2.466,3.641,6.757,5.814,11.476,5.814c4.721,0,9.012-2.174,11.479-5.814c0.309-0.459,0.828-0.733,1.381-0.733  s1.07,0.274,1.383,0.733c2.467,3.641,6.758,5.814,11.475,5.814c2.578,0,5.096-0.677,7.248-1.916v-9.961H11.775v9.872  c2.187,1.296,4.757,2.006,7.395,2.006C23.889,55.875,28.18,53.701,30.646,50.061z"/>
<path fill="#000000" d="M70.604,59.214c-5.033,0-9.691-2.031-12.857-5.522c-3.166,3.491-7.824,5.522-12.86,5.522  c-5.035,0-9.691-2.031-12.858-5.522c-3.165,3.491-7.824,5.522-12.859,5.522c-2.577,0-5.105-0.56-7.395-1.594v8.405  c0,2.518,2.041,4.557,4.558,4.557h56.962c2.518,0,4.557-2.039,4.557-4.557v-8.338C75.604,58.679,73.125,59.214,70.604,59.214z"/>
<path fill="#000000" d="M77.773,40.66c-0.193-1.061-0.754-2.029-1.607-2.72L59.803,24.667c-1.203-0.974-2.818-1.271-4.287-0.792  l-0.039,0.013c0.111,0.629,0.18,1.272,0.18,1.932c0,6.052-4.924,10.976-10.977,10.976c-4.322,0-8.059-2.518-9.848-6.159  l-19.916,6.511c-1.608,0.527-2.764,1.891-3.059,3.513H77.773z"/>
<path fill="#000000" d="M45.966,23.336c-0.253,0-0.512-0.066-0.747-0.204c-0.708-0.414-0.947-1.322-0.533-2.03  c2.821-4.826,1.19-11.048-3.636-13.871c-0.707-0.414-0.946-1.322-0.532-2.03c0.413-0.707,1.322-0.945,2.031-0.531  c6.239,3.647,8.348,11.691,4.7,17.93C46.973,23.073,46.477,23.336,45.966,23.336z"/>
<path fill="#000000" d="M50.59,20.436c-0.34,1.125-0.801,2.23-1.42,3.288c-0.689,1.18-1.93,1.838-3.206,1.838  c-0.636,0-1.28-0.164-1.868-0.508c-1.77-1.034-2.365-3.306-1.331-5.074c0.392-0.669,0.667-1.372,0.844-2.088  c-3.91,0.526-6.938,3.876-6.938,7.929c0,4.416,3.593,8.007,8.008,8.007c4.416,0,8.008-3.592,8.008-8.007  C52.688,23.747,51.889,21.86,50.59,20.436z"/>
</svg>