<svg xmlns="http://www.w3.org/2000/svg" xmlns:xlink="http://www.w3.org/1999/xlink" version="1.1" id="Layer_1" x="0px" y="0px" width="100px" height="100px" viewBox="0 0 100 100" enable-background="new 0 0 100 100" xml:space="preserve">
<g>
	<path fill="#000000" d="M79.859,26.85c0-3.928-3.18-7.116-7.108-7.116c-1.139,0-2.213,0.268-3.164,0.74   C65.025,14.179,57.608,10.08,49.239,10.08c-8.394,0-15.818,4.115-20.382,10.435c-2.675-1.366-6.034-0.936-8.278,1.301   c-2.773,2.782-2.773,7.287,0,10.068c1.024,1.025,2.277,1.667,3.595,1.936c0,0.049-0.009,0.098-0.009,0.146h-0.031l-1.937,46.528   l-0.008,0.26c0,5.059,12.085,9.166,27,9.166c14.917,0,27.011-4.107,27.011-9.166l-0.009-0.26l-1.854-45.91l-0.024-0.618   c0-0.057-0.008-0.114-0.016-0.171C77.484,33.087,79.859,30.249,79.859,26.85z M27.46,22.743l-3.839,8.254   c-2.025-1.171-2.854-3.716-1.854-5.88c0.748-1.602,2.375-2.643,4.147-2.643C26.443,22.474,26.963,22.564,27.46,22.743z    M58.454,44.327v9.792c0,1.154-0.937,2.099-2.099,2.099H42.123c-1.163,0-2.099-0.944-2.099-2.099v-9.792   c-5.18-0.48-9.23-4.831-9.23-10.134c0-5.62,4.554-10.174,10.174-10.174c3.407,0,6.426,1.676,8.271,4.246   c1.846-2.57,4.863-4.246,8.271-4.246c5.62,0,10.175,4.555,10.175,10.174C67.685,39.496,63.635,43.847,58.454,44.327z M74.435,31.03   l-3.058-8.376c0.374-0.098,0.757-0.147,1.147-0.147c1.861,0,3.553,1.18,4.196,2.936C77.517,27.639,76.5,30.054,74.435,31.03z"/>
</g>
<g>
	<path fill="#000000" d="M47.756,43.839c-0.207,0.456-0.745,0.658-1.203,0.451c-0.456-0.207-0.655-0.745-0.449-1.201   c0,0,1.257-1.86,1.734-1.627C48.314,41.694,47.756,43.839,47.756,43.839z"/>
</g>
<g>
	<path fill="#000000" d="M50.601,43.941c0.206,0.456,0.745,0.658,1.202,0.451c0.456-0.207,0.656-0.745,0.449-1.201   c0,0-1.256-1.86-1.734-1.627C50.041,41.796,50.601,43.941,50.601,43.941z"/>
</g>
<g>
	<path fill="#000000" d="M39.732,32.558c0.959,0,1.741,0.781,1.741,1.741c0,0.959-0.782,1.741-1.741,1.741   c-0.96,0-1.739-0.781-1.739-1.741C37.993,33.339,38.772,32.558,39.732,32.558 M39.732,30.118c-2.309,0-4.18,1.872-4.18,4.181   c0,2.309,1.871,4.181,4.18,4.181c2.31,0,4.181-1.872,4.181-4.181C43.913,31.99,42.042,30.118,39.732,30.118L39.732,30.118z"/>
</g>
<g>
	<path fill="#000000" d="M58.019,32.558c0.959,0,1.741,0.781,1.741,1.741c0,0.959-0.782,1.741-1.741,1.741   c-0.96,0-1.739-0.781-1.739-1.741C56.279,33.339,57.059,32.558,58.019,32.558 M58.019,30.118c-2.309,0-4.18,1.872-4.18,4.181   c0,2.309,1.871,4.181,4.18,4.181c2.31,0,4.181-1.872,4.181-4.181C62.199,31.99,60.328,30.118,58.019,30.118L58.019,30.118z"/>
</g>
<g>
	<path fill="#000000" d="M49.344,53.336c-3.696,0-5.083-3.35-5.301-5.119c-0.056-0.445,0.263-0.853,0.707-0.906   c0.448-0.054,0.852,0.261,0.907,0.705l0,0c0.019,0.15,0.513,3.693,3.687,3.693c3.196,0,3.67-3.541,3.688-3.691   c0.054-0.445,0.471-0.757,0.905-0.707c0.446,0.055,0.765,0.461,0.709,0.906C54.427,49.986,53.039,53.336,49.344,53.336z"/>
</g>
</svg>