<svg xmlns="http://www.w3.org/2000/svg" xmlns:xlink="http://www.w3.org/1999/xlink" version="1.1" id="Layer_1" x="0px" y="0px" width="100px" height="100px" viewBox="0 0 100 100" enable-background="new 0 0 100 100" xml:space="preserve">
<g>
	<rect x="29.926" y="80.438" fill="#000000" width="40.722" height="5.985"/>
	<path fill="#000000" d="M67.212,64.058c0-9.499-7.698-17.193-17.194-17.193c-9.499,0-17.194,7.694-17.194,17.193V78.9h34.389   V64.058z M65.216,77.042h-5.733V63.921c0-7.413-5.311-13.578-12.334-14.92c0.93-0.177,1.887-0.278,2.869-0.278   c8.396,0,15.198,6.803,15.198,15.199V77.042z"/>
	<path fill="#000000" d="M49.996,32.775c1.033,0,1.87-0.836,1.87-1.871V15.447c0-1.033-0.837-1.87-1.87-1.87   c-1.031,0-1.867,0.836-1.867,1.87v15.457C48.129,31.938,48.965,32.775,49.996,32.775z"/>
	<path fill="#000000" d="M22.327,56.711H6.87c-1.031,0-1.87,0.837-1.87,1.872c0,1.029,0.839,1.869,1.87,1.869h15.457   c1.032,0,1.87-0.84,1.87-1.869C24.197,57.548,23.359,56.711,22.327,56.711z"/>
	<path fill="#000000" d="M93.129,56.711H77.672c-1.033,0-1.871,0.837-1.871,1.872c0,1.029,0.838,1.869,1.871,1.869h15.457   c1.033,0,1.871-0.84,1.871-1.869C95,57.548,94.162,56.711,93.129,56.711z"/>
	<path fill="#000000" d="M31.75,40.333c0.729-0.729,0.729-1.915,0-2.645l-10.93-10.93c-0.731-0.73-1.914-0.73-2.646,0   c-0.73,0.73-0.73,1.913,0,2.643l10.93,10.932C29.835,41.061,31.02,41.064,31.75,40.333z"/>
	<path fill="#000000" d="M81.82,26.758c-0.731-0.73-1.914-0.73-2.646,0l-10.927,10.93c-0.731,0.73-0.731,1.916,0,2.646   c0.727,0.73,1.909,0.73,2.641,0L81.82,29.402C82.551,28.673,82.551,27.49,81.82,26.758z"/>
</g>
</svg>