<?xml version="1.0" encoding="utf-8"?>
<!-- Generator: Adobe Illustrator 15.1.0, SVG Export Plug-In . SVG Version: 6.00 Build 0)  -->
<!DOCTYPE svg PUBLIC "-//W3C//DTD SVG 1.1//EN" "http://www.w3.org/Graphics/SVG/1.1/DTD/svg11.dtd">
<svg version="1.1" id="Layer_1" xmlns="http://www.w3.org/2000/svg" xmlns:xlink="http://www.w3.org/1999/xlink" x="0px" y="0px"
	 width="67.869px" height="100px" viewBox="0 0 67.869 100" enable-background="new 0 0 67.869 100" xml:space="preserve">
<path d="M44.731,85.448v0.936c0,0.773-0.632,1.402-1.404,1.402H24.542c-0.772,0-1.404-0.629-1.404-1.402v-0.936
	c0-0.784,0.631-1.416,1.404-1.416h18.785C44.1,84.032,44.731,84.664,44.731,85.448z"/>
<path d="M44.731,79.81v0.935c0,0.783-0.632,1.415-1.404,1.415H24.542c-0.772,0-1.404-0.632-1.404-1.415V79.81
	c0-0.773,0.631-1.405,1.404-1.405h18.785C44.1,78.405,44.731,79.037,44.731,79.81z"/>
<path d="M26.892,95.309h14.083c0,2.807-3.755,4.691-7.041,4.691C30.647,99.999,26.892,98.116,26.892,95.309z"/>
<path d="M33.935,0C15.214,0,0,15.227,0,33.958c0,11.667,5.866,22.355,15.715,28.646c0.924,0.588,1.611,2.264,2.361,4.037
	c0.86,2.067,1.828,4.421,3.614,6.477c2.917,3.331,7.465,3.331,12.244,3.331c5.627,0,9.534-0.24,12.255-3.364
	c1.851-2.078,2.862-4.451,3.776-6.553c0.785-1.806,1.515-3.515,2.492-4.134c9.654-6.282,15.411-16.894,15.411-28.439
	C67.868,15.227,52.654,0,33.935,0z M33.77,71.135c-0.631-6.225-1.752-14.377-3.461-20.646c1.458-0.86,2.83-1.807,3.971-2.862
	c0.86,0.805,1.776,1.589,2.71,2.318c0.393,0.283,0.795,0.544,1.187,0.794c-0.662,3.363-1.317,7.694-2.066,13.223
	c-0.359,2.525-0.708,4.974-1.045,7.161c-0.359,0.011-0.742,0.011-1.132,0.011L33.77,71.135L33.77,71.135z M32.748,37.799
	c0.064-0.141,0.544-0.403,1.654-0.403h0.067c0.532,0,1.173,0.077,1.26,0.458c0.198,0.708-0.205,2.144-1.381,3.81
	C33.075,39.824,32.552,38.365,32.748,37.799z M49.562,57.946c-2.318,1.479-3.427,4.025-4.481,6.475
	c-0.773,1.817-1.603,3.68-2.875,5.148c-0.643,0.719-1.579,1.12-3.067,1.327c0.303-1.979,0.585-4.156,0.9-6.378
	c0.514-3.592,1.188-8.478,1.961-12.483c1.609,0.175,3.059-0.151,4.125-0.696c1.849-0.927,2.97-2.645,2.927-4.452
	c-0.021-1.295-0.621-3.678-4.397-5.409c-0.849-0.392-1.773-0.337-2.59,0.109c-1.22,0.664-2.101,2.22-2.896,4.985
	c-0.783-0.609-1.502-1.219-2.109-1.839c2.164-2.743,3.167-5.648,2.514-7.956c-0.599-2.144-2.591-3.319-5.235-3.363
	c-3.766,0.043-4.974,1.97-5.354,3.124c-0.795,2.362,0.457,5.333,2.644,8.13c-0.74,0.653-1.6,1.317-2.58,1.948
	c-1.055-2.743-2.264-4.734-3.711-5.409c-1.132-0.533-2.329-0.457-3.384,0.261c-3.505,2.264-3.701,5.562-2.384,7.651
	c1.252,2.003,3.896,3.222,6.955,2.766c1.154,4.408,2.33,10.808,3.233,19.133c-2.166-0.162-3.298-0.544-4.038-1.393
	c-1.242-1.403-1.992-3.254-2.733-5.028c-1.033-2.459-2.1-4.984-4.418-6.486C10.263,52.82,5.311,43.786,5.311,33.958
	c0-15.792,12.853-28.635,28.624-28.635s28.613,12.842,28.613,28.635C62.548,43.709,57.693,52.655,49.562,57.946z M42.847,48.095
	c0.295-1.121,0.577-2.035,0.893-2.59c1.001,0.598,1.327,1.186,1.327,1.447c0,0.272-0.282,0.599-0.729,0.816
	c-0.391,0.196-0.87,0.326-1.469,0.326C42.87,48.095,42.87,48.095,42.847,48.095z M25.335,48.019
	c-1.208,0.021-2.046-0.457-2.383-1.001c-0.49-0.794,0.304-1.578,0.871-2.035C24.269,45.439,24.791,46.44,25.335,48.019z"/>
<path d="M44.731,91.075v0.946c0,0.773-0.632,1.404-1.404,1.404H24.542c-0.772,0-1.404-0.631-1.404-1.404v-0.946
	c0-0.773,0.631-1.404,1.404-1.404h18.785C44.1,89.67,44.731,90.301,44.731,91.075z"/>
</svg>
