<svg xmlns="http://www.w3.org/2000/svg" xmlns:xlink="http://www.w3.org/1999/xlink" version="1.1" id="Layer_1" x="0px" y="0px" width="100px" height="100px" viewBox="0 0 100 100" enable-background="new 0 0 100 100" xml:space="preserve">
<path fill="#000000" d="M92.883,44.873c-1.492-3.421-3.466-6.644-5.881-9.607c0.164-0.797,0.246-1.604,0.246-2.413  c0-2.787-0.979-6.77-5.354-10.645c-0.371-2.984-2.179-7.386-8.769-11.07c-1.337-4.141-5.401-6.659-8.009-7.894  C60.695,1.151,54.909,0,48.828,0C42.746,0,36.96,1.151,32.536,3.244c-5.621,2.659-7.587,6.055-8.201,8.628  c-4.579,2.903-7.22,6.613-7.58,10.687c-4.042,3.759-4.966,7.584-4.966,10.294c0,1.122,0.157,2.231,0.469,3.32  c-2.062,2.68-3.779,5.564-5.114,8.604l-0.561,1.275c0,0,1.242,4.585,1.429,4.94c2.478,8.891,6.783,24.316,8.831,31.438  c1.488,5.176,5.638,9.745,11.684,12.866c5.96,3.078,13.57,4.704,22.008,4.704c8.49,0,16.129-1.604,22.09-4.643  c6.189-3.152,10.326-7.799,11.641-13.078c2.086-8.371,6.215-24.771,8.012-31.896c0.166-0.354,1.142-4.288,1.142-4.288L92.883,44.873  z M21.366,25.407l0.024,0.034l1.376-1.039l-0.875-1.159c0.147-2.966,2.641-5.798,7.069-8.055l0.802-0.399l-0.502-1.007  c0.238-4.688,9.103-8.609,19.567-8.609c10.606,0,19.571,4.03,19.571,8.804c0,3.227-2.771,6.314-7.806,8.694  c-5.235,2.478-12.219,3.984-19.659,3.984v1.149c7.69,0,14.935-0.992,20.396-3.576c5.012-2.371,8.029-5.492,8.662-8.9  c4.396,2.306,6.812,5.188,6.812,8.195c0,3.87-3.303,7.563-9.297,10.399c-6.197,2.933-14.461,4.835-23.263,4.835v1.006  c9.052,0,17.573-1.243,24-4.283c5.489-2.598,8.938-5.956,9.959-9.633c2.521,2.146,3.868,4.539,3.868,7.005  c0,3.871-3.305,7.563-9.299,10.399C66.58,46.185,58.318,47.8,49.517,47.8c-8.802,0-17.062-1.615-23.264-4.548  c-5.993-2.836-9.295-6.528-9.295-10.399C16.961,30.217,18.496,27.664,21.366,25.407z M11.991,46.604  c1.095-2.438,2.463-4.746,4.074-6.896c2.049,3.488,5.985,7.279,13.381,10.375c7.99,3.347,18.459,5.188,29.477,5.188  c9.784,0,19.13-1.457,26.696-4.125c-2.325,2.681-5.973,5.099-10.66,7.021c-6.969,2.854-15.835,4.431-24.967,4.431  c-18.116,0-33.95-6.158-37.714-14.655L11.991,46.604z M86.29,52.971c-2.038,8.098-5.272,20.961-7.042,28.062  c-0.948,3.805-4.135,7.256-8.971,9.721c-5.237,2.667-12.063,4.076-19.742,4.076c-17.094,0-26.741-6.943-28.721-13.826  c-1.779-6.188-5.276-18.688-7.783-27.678l-0.093-0.123c2.567,2.581,6.236,4.879,10.776,6.697c7.111,2.853,16.088,4.42,25.276,4.42  c4.792,0,9.418-0.422,13.723-1.199l0.135,13.719l1.148-0.146l0.41-13.901c4.072-0.844,7.826-2.009,11.113-3.438L72.379,85.48  l1.415-1.022l4.604-25.978c3.23-1.604,5.934-3.479,7.933-5.563L86.29,52.971z"/>
</svg>