<svg xmlns="http://www.w3.org/2000/svg" xmlns:xlink="http://www.w3.org/1999/xlink" version="1.1" id="Layer_1" x="0px" y="0px" width="100px" height="100px" viewBox="0 0 100 100" enable-background="new 0 0 100 100" xml:space="preserve">
<g>
	<g>
		<path d="M69.656,79.086c-1.696,0-3.075,1.373-3.075,3.068c0,1.701,1.379,3.076,3.075,3.076c1.699,0,3.074-1.375,3.074-3.076    C72.73,80.459,71.355,79.086,69.656,79.086z"/>
		<path d="M83.328,7.913h-27.34c-6.436,0-11.671,5.235-11.671,11.67v60.833c0,6.436,5.236,11.672,11.671,11.672h27.34    C89.764,92.088,95,86.852,95,80.416V19.583C95,13.147,89.764,7.913,83.328,7.913z M93.109,80.416c0,5.393-4.387,9.781-9.781,9.781    h-27.34c-5.393,0-9.78-4.389-9.78-9.781V19.583c0-5.394,4.387-9.781,9.78-9.781h27.34c5.395,0,9.781,4.387,9.781,9.781V80.416z"/>
		<path d="M64.584,15.478h10.145c0.508,0,0.923-0.637,0.923-1.416c0-0.786-0.415-1.419-0.923-1.419H64.584    c-0.508,0-0.922,0.634-0.922,1.419C63.662,14.841,64.076,15.478,64.584,15.478z"/>
		<rect x="51.449" y="18.788" width="36.414" height="57.222"/>
	</g>
	<path d="M42.853,87.029c-4.816-1.971-9.065-7.137-12.008-14.254c3.271,0.781,6.77,1.312,10.421,1.596v-4.159   c-3.471-0.302-6.803-0.862-9.924-1.657c-0.22-1.734-1.423-3.143-3.041-3.668c-0.83-3.479-1.386-7.209-1.604-11.096   c0.677-0.421,1.228-1.02,1.598-1.729h12.971v-4.126H28.294c-0.37-0.713-0.92-1.309-1.602-1.731   c0.226-3.997,0.816-7.825,1.684-11.384c1.496-0.516,2.637-1.79,2.938-3.37c3.126-0.799,6.47-1.363,9.951-1.671v-4.16   c-3.654,0.288-7.15,0.825-10.423,1.605c2.951-7.128,7.203-12.338,12.031-14.297c1.003-1.971,2.436-3.681,4.174-5.016   c-1.364,0-2.712,0.081-4.042,0.206C23.052,10.046,7.136,25.955,5.207,45.914C5.078,47.253,5,48.614,5,49.991   c0,0.003,0,0.006,0,0.006v0.002c0,0,0,0.008,0,0.012c0,1.382,0.08,2.741,0.207,4.093C7.146,73.973,22.939,89.846,42.77,91.869   c1.408,0.143,2.833,0.215,4.277,0.215C45.295,90.74,43.856,89.016,42.853,87.029z M33.695,14.52   c-2.783,3.035-5.175,6.981-7.023,11.644c-2.11,0.123-3.819,1.695-4.143,3.741c-4.345,1.805-8.049,4.078-10.923,6.712   C15.455,26.447,23.531,18.369,33.695,14.52z M23.942,33.911c0.091,0.082,0.183,0.157,0.282,0.232   c-0.853,3.675-1.421,7.617-1.647,11.754c-0.941,0.408-1.698,1.135-2.169,2.039H10.069c-0.141-0.278-0.316-0.533-0.511-0.772   C10.992,41.855,16.341,37.134,23.942,33.911z M10.069,52.062h10.339c0.473,0.904,1.229,1.629,2.169,2.037   c0.221,4.054,0.775,7.912,1.6,11.523c-0.157,0.121-0.308,0.24-0.443,0.379c-7.492-3.219-12.755-7.905-14.175-13.166   C9.752,52.598,9.928,52.342,10.069,52.062z M11.612,63.389c2.88,2.639,6.601,4.922,10.965,6.723   c0.428,1.875,2.029,3.283,3.989,3.439c1.86,4.791,4.294,8.834,7.133,11.928C23.535,81.633,15.467,73.557,11.612,63.389z"/>
</g>
</svg>